# xmcd
#
# Track frame offsets: 
#        150
#        11659
#        25597
#        39067
#        50936
#        64130
#        77625
#        94733
#        109543
#        122770
#
# Disc length: 1801 seconds
#
# Revision: 0
# Processed by: cddbd v1.5.1PL2 Copyright (c) Steve Scherf et al.
# Submitted via: ExactAudioCopy v0.95a5
#
DISCID=7407070a
DTITLE=Reba McEntire - Out Of A Dream
DYEAR=1998
DGENRE=Country
TTITLE0=(I Still Long To Hold You) Now And Then
TTITLE1=Daddy
TTITLE2=Last Night, Ev'ry Night
TTITLE3=Make Me Feel Like A Woman Wants To Feel
TTITLE4=That Makes Two Of Us
TTITLE5=Sweet Dreams
TTITLE6=I'm A Woman
TTITLE7=Rain Fallin'
TTITLE8=Runaway Heart
TTITLE9=It's Gotta Be Love
EXTD=
EXTT0=
EXTT1=
EXTT2=
EXTT3=
EXTT4=
EXTT5=
EXTT6=
EXTT7=
EXTT8=
EXTT9=
PLAYORDER=
